<svg width="417" height="354" viewBox="0 0 417 354" fill="none" xmlns="http://www.w3.org/2000/svg">
<g opacity="0.1">
<path opacity="0.1" d="M224.359 113.922C255.709 113.922 281.122 88.5423 281.122 57.2351C281.122 25.9279 255.709 0.548416 224.359 0.548416C193.01 0.548416 167.596 25.9279 167.596 57.2351C167.596 88.5423 193.01 113.922 224.359 113.922Z" fill="#FFC71D"/>
</g>
<g opacity="0.3">
<path opacity="0.3" d="M224.359 103.146C249.749 103.146 270.332 82.5907 270.332 57.2351C270.332 31.8794 249.749 11.3246 224.359 11.3246C198.969 11.3246 178.387 31.8794 178.387 57.2351C178.387 82.5907 198.969 103.146 224.359 103.146Z" fill="#FFC71D"/>
</g>
<g opacity="0.4">
<path opacity="0.4" d="M224.359 96.0293C245.161 96.0293 262.025 78.6605 262.025 57.2351C262.025 35.8096 245.161 18.4409 224.359 18.4409C203.557 18.4409 186.694 35.8096 186.694 57.2351C186.694 78.6605 203.557 96.0293 224.359 96.0293Z" fill="#FFC71D"/>
</g>
<g opacity="0.6">
<path opacity="0.6" d="M224.359 87.4896C241.091 87.4896 254.655 73.9442 254.655 57.2351C254.655 40.5259 241.091 26.9805 224.359 26.9805C207.628 26.9805 194.064 40.5259 194.064 57.2351C194.064 73.9442 207.628 87.4896 224.359 87.4896Z" fill="#FFC71D"/>
</g>
<g opacity="0.34">
<g opacity="0.34">
<path opacity="0.34" d="M294.112 212.859V271.742C294.112 281.46 294.601 287.52 295.537 289.959C296.474 292.399 298.306 294.514 301.075 296.344C303.803 298.174 307.509 299.068 312.192 299.068H317.729V304.273H230.712V299.068H236.249C241.054 299.068 244.963 298.092 247.895 296.14C250.013 294.839 251.641 292.603 252.782 289.431C253.677 287.194 254.125 281.298 254.125 271.782V146.698C254.125 136.979 253.677 130.92 252.782 128.48C251.886 126.04 250.053 123.925 247.325 122.095C244.597 120.265 240.892 119.371 236.209 119.371H230.671V114.166H317.607V119.371H312.069C307.264 119.371 303.355 120.347 300.424 122.299C298.306 123.6 296.637 125.837 295.415 129.008C294.519 131.245 294.071 137.141 294.071 146.657V200.497H352.789V146.698C352.789 136.979 352.341 130.92 351.445 128.48C350.549 126.04 348.717 123.925 345.907 122.095C343.138 120.265 339.392 119.371 334.75 119.371H329.335V114.166H416.149V119.371H410.733C405.847 119.371 401.938 120.347 399.087 122.299C396.97 123.6 395.3 125.837 394.079 129.008C393.183 131.245 392.735 137.141 392.735 146.657V271.701C392.735 281.42 393.183 287.479 394.079 289.919C394.975 292.359 396.807 294.473 399.617 296.303C402.386 298.133 406.132 299.028 410.774 299.028H416.189V304.233H329.457V299.028H334.872C339.759 299.028 343.668 298.052 346.518 296.1C348.636 294.798 350.305 292.562 351.527 289.39C352.423 287.154 352.87 281.257 352.87 271.742V212.859H294.112Z" fill="#EAEAEA"/>
</g>
</g>
<path d="M102.974 252.995L98.0878 211.924L99.513 209.891H114.783L128.22 186.305L132.903 208.874L210.881 208.264L211.085 184.678L224.929 200.944L217.193 206.841L243.457 206.434L246.714 209.687L242.846 239.047L270.006 202.896C272.286 199.44 270.902 194.723 267.034 193.096C266.993 193.055 266.911 193.055 266.871 193.015L213.732 153.977C203.674 146.738 203.755 148.365 197.729 144.949L189.829 141.899L190.277 129.09L189.3 116.158L183.68 108.635L164.257 101.926L154.077 111.279L151.227 126.121L155.706 142.021L143.287 142.387L126.999 146.657L64.9013 207.451L59.6077 213.957L62.8653 223.513L102.974 252.995Z" fill="#48DD8F"/>
<path d="M372.212 304.395C372.172 304.395 372.172 304.395 372.212 304.395L0.971482 301.793C0.523566 301.793 0.157089 301.427 0.157089 300.98C0.157089 300.532 0.523566 300.166 0.971482 300.166L372.172 302.769C372.619 302.769 372.986 303.135 372.986 303.582C372.986 304.029 372.66 304.395 372.212 304.395Z" fill="black"/>
<path d="M176.269 144.095C176.147 144.217 175.984 144.298 175.822 144.38L176.392 149.991L171.627 152.147L167.23 148.161L167.596 144.217C167.148 144.095 166.904 144.014 166.904 144.014L161.733 129.903L161.61 129.537L161.529 127.992C161.733 127.87 168.126 120.997 168.126 120.997L170.854 121.729L182.947 123.478L181.319 140.964L176.269 144.095Z" fill="white"/>
<path d="M182.866 123.722C175.74 123.315 168.533 121.851 168.533 121.851C168.044 124.047 162.873 126.324 161.244 128.724V128.683C161.203 128.561 161.162 128.398 161.122 128.236C161.081 128.154 161.081 128.073 161.081 127.992C161.081 127.91 161.04 127.829 161.04 127.748C161 127.585 160.959 127.422 160.918 127.219C160.837 126.853 160.796 126.487 160.715 126.08C160.674 125.796 160.633 125.511 160.592 125.186C160.552 124.901 160.552 124.576 160.511 124.251C160.511 124.129 160.511 124.047 160.511 123.925C160.47 122.583 160.552 121.201 161 120.143C162.425 116.565 168.655 109.855 178.224 114.247C178.224 114.247 179.323 115.264 180.464 116.931C180.545 117.053 180.586 117.134 180.667 117.256C180.749 117.378 180.789 117.46 180.871 117.582C180.911 117.704 180.993 117.785 181.034 117.907C181.115 118.029 181.197 118.192 181.278 118.314C181.359 118.436 181.4 118.517 181.441 118.639C181.522 118.801 181.604 118.964 181.685 119.086C181.726 119.208 181.807 119.289 181.848 119.411C181.848 119.452 181.889 119.452 181.889 119.493C182.011 119.777 182.092 120.021 182.215 120.306C182.255 120.428 182.296 120.591 182.337 120.753C182.377 120.875 182.418 121.038 182.459 121.16C182.459 121.201 182.459 121.201 182.5 121.241C182.54 121.363 182.581 121.526 182.581 121.648C182.622 121.77 182.622 121.933 182.662 122.095C182.662 122.136 182.662 122.177 182.662 122.177C182.703 122.299 182.703 122.461 182.703 122.583V122.624C182.703 122.746 182.744 122.909 182.744 123.071C182.744 123.112 182.744 123.112 182.744 123.153C182.825 123.397 182.866 123.559 182.866 123.722Z" fill="#2FAF69"/>
<path d="M161.244 129.537C161.162 129.537 161.081 129.537 161 129.496C160.715 129.415 160.47 129.171 160.43 128.846L160.389 128.764C160.348 128.642 160.348 128.561 160.307 128.439C160.267 128.358 160.267 128.276 160.267 128.195L160.226 128.114C160.226 128.073 160.185 127.992 160.185 127.951C160.145 127.788 160.104 127.626 160.063 127.422C159.982 127.016 159.9 126.609 159.859 126.243C159.819 125.958 159.778 125.633 159.737 125.349C159.697 125.023 159.697 124.698 159.656 124.373C159.656 124.291 159.656 124.169 159.656 124.047C159.574 122.38 159.778 120.997 160.185 119.899C161.163 117.5 163.769 114.41 167.433 112.946C170.854 111.563 174.6 111.766 178.509 113.556C178.59 113.596 178.672 113.637 178.713 113.678C178.753 113.718 179.934 114.776 181.074 116.524L181.156 116.646C181.197 116.728 181.237 116.809 181.319 116.85C181.4 116.972 181.482 117.094 181.522 117.216C181.604 117.338 181.644 117.419 181.726 117.541C181.807 117.663 181.889 117.826 181.97 117.988C182.011 118.07 182.092 118.192 182.174 118.354C182.255 118.517 182.337 118.679 182.418 118.842C182.459 118.964 182.5 119.045 182.581 119.167C182.581 119.208 182.622 119.249 182.622 119.289C182.744 119.574 182.825 119.818 182.947 120.143C182.988 120.306 183.07 120.469 183.11 120.631C183.151 120.753 183.192 120.916 183.233 121.079C183.233 121.119 183.273 121.16 183.273 121.201C183.314 121.323 183.355 121.485 183.355 121.648C183.395 121.77 183.395 121.933 183.436 122.055C183.436 122.095 183.436 122.136 183.477 122.217C183.518 122.339 183.518 122.502 183.518 122.624C183.518 122.665 183.518 122.665 183.518 122.705C183.518 122.868 183.558 122.99 183.558 123.153C183.558 123.193 183.558 123.234 183.558 123.275C183.558 123.437 183.599 123.6 183.599 123.763C183.599 124.007 183.518 124.21 183.355 124.373C183.192 124.535 182.988 124.617 182.744 124.617C176.88 124.291 170.935 123.234 168.981 122.868C168.329 124.088 166.823 125.186 165.234 126.365C163.891 127.341 162.506 128.358 161.855 129.293C161.733 129.415 161.488 129.537 161.244 129.537ZM172.116 113.718C170.732 113.718 169.388 113.962 168.085 114.491C164.909 115.752 162.547 118.517 161.773 120.55C161.407 121.404 161.285 122.583 161.325 124.007C161.325 124.088 161.325 124.21 161.325 124.291C161.325 124.617 161.366 124.901 161.407 125.186C161.448 125.471 161.488 125.755 161.529 126.04C161.57 126.365 161.61 126.69 161.692 127.056C162.466 126.365 163.402 125.674 164.339 124.983C165.845 123.885 167.555 122.624 167.759 121.729C167.841 121.282 168.288 121.038 168.736 121.119C168.818 121.119 175.333 122.461 182.011 122.909V122.868C182.011 122.746 181.97 122.624 181.97 122.502V122.461V122.421C181.929 122.299 181.929 122.136 181.889 122.014C181.848 121.892 181.848 121.77 181.807 121.648C181.807 121.607 181.807 121.607 181.807 121.567C181.767 121.404 181.726 121.282 181.685 121.16C181.644 120.997 181.604 120.875 181.563 120.753C181.482 120.509 181.359 120.225 181.278 119.981V119.94C181.278 119.94 181.278 119.94 181.278 119.899C181.237 119.777 181.197 119.696 181.156 119.615V119.574C181.115 119.452 181.034 119.289 180.952 119.167C180.912 119.045 180.83 118.964 180.789 118.842C180.708 118.679 180.626 118.557 180.586 118.435C180.504 118.314 180.464 118.232 180.382 118.11C180.301 117.988 180.26 117.907 180.179 117.785C180.138 117.704 180.097 117.663 180.056 117.582L179.975 117.46C179.079 116.158 178.224 115.264 177.939 115.02C175.822 114.125 173.948 113.718 172.116 113.718Z" fill="black"/>
<path d="M240.932 246.773C240.729 246.773 240.566 246.692 240.403 246.57C240.077 246.285 240.036 245.757 240.321 245.432L240.606 245.106C240.892 244.781 241.421 244.74 241.747 245.025C242.072 245.31 242.113 245.838 241.828 246.163L241.543 246.489C241.38 246.692 241.136 246.773 240.932 246.773Z" fill="black"/>
<path d="M241.217 246.448C241.014 246.448 240.851 246.367 240.688 246.245C240.362 245.96 240.321 245.432 240.606 245.106L272.571 207.491C276.033 203.466 275.951 197.447 272.368 193.503C271.268 192.283 270.372 191.388 270.169 191.185L209.66 148.161L191.947 140.476C191.621 140.354 191.458 140.029 191.458 139.703L192.069 128.154L191.376 116.118L185.961 107.334L165.234 103.024L157.009 110.018C155.421 111.36 154.362 113.23 153.996 115.304L152.489 124.088C152.815 125.471 155.177 135.474 156.643 141.858C157.579 145.925 157.783 146.982 157.864 147.307C158.271 148.283 162.995 155.969 165.886 160.686C166.13 161.052 166.008 161.581 165.642 161.825C165.275 162.069 164.746 161.947 164.501 161.581C156.805 149.178 156.276 147.917 156.235 147.592C156.235 147.47 156.073 146.779 155.055 142.265C153.466 135.433 150.901 124.454 150.86 124.332C150.82 124.21 150.82 124.129 150.86 124.007L152.408 115.06C152.815 112.62 154.077 110.425 155.95 108.839L164.461 101.56C164.664 101.397 164.909 101.316 165.153 101.397L186.653 105.87C186.857 105.911 187.06 106.033 187.182 106.236L192.883 115.508C192.965 115.63 193.005 115.752 193.005 115.874L193.738 128.195C193.738 128.236 193.738 128.236 193.738 128.276L193.168 139.297L210.474 146.779C210.515 146.82 210.596 146.82 210.637 146.86L271.228 189.965C271.268 190.005 271.309 190.005 271.309 190.046C271.35 190.087 272.368 191.063 273.63 192.486C277.743 197.04 277.824 203.994 273.834 208.63L241.869 246.245C241.665 246.367 241.421 246.448 241.217 246.448Z" fill="black"/>
<path d="M176.677 150.805C176.269 150.805 175.903 150.479 175.862 150.073L175.374 144.095C175.333 143.77 175.496 143.485 175.74 143.322L180.504 140.394L182.011 125.145C182.052 124.657 182.092 124.21 182.052 123.803C182.052 123.356 182.377 122.99 182.825 122.949C183.273 122.949 183.64 123.275 183.68 123.722C183.721 124.251 183.68 124.779 183.599 125.308L182.092 140.964C182.052 141.208 181.929 141.452 181.726 141.574L177.043 144.461L177.491 149.951C177.532 150.398 177.206 150.805 176.758 150.845C176.717 150.805 176.717 150.805 176.677 150.805Z" fill="black"/>
<path d="M160.918 128.073C160.552 128.073 160.185 127.788 160.104 127.422C160.022 127.056 159.982 126.65 159.9 126.284C159.819 125.837 160.145 125.43 160.592 125.349C161.04 125.267 161.448 125.593 161.529 126.04C161.57 126.406 161.651 126.772 161.692 127.138C161.773 127.585 161.488 127.992 161.04 128.073C161 128.073 160.959 128.073 160.918 128.073Z" fill="black"/>
<path d="M171.18 152.838C170.935 152.838 170.691 152.716 170.528 152.513C170.284 152.228 168.126 150.154 166.252 148.365C166.09 148.202 166.008 147.999 166.008 147.755L166.09 143.77L160.877 130.472V130.432C160.877 130.391 160.674 129.822 160.47 128.927C160.348 128.48 160.633 128.032 161.081 127.951C161.529 127.829 161.977 128.114 162.058 128.561C162.221 129.293 162.384 129.822 162.425 129.944L167.718 143.322C167.759 143.404 167.759 143.526 167.759 143.648L167.678 147.47C170.324 149.991 171.75 151.374 171.912 151.618C172.157 151.984 172.075 152.513 171.668 152.757C171.505 152.797 171.342 152.838 171.18 152.838Z" fill="black"/>
<path d="M103.096 252.995C102.933 252.995 102.771 252.955 102.608 252.833L66.2858 226.848C61.9288 223.717 59.3227 218.674 59.3227 213.306C59.3227 213.103 59.4041 212.9 59.567 212.737L102.363 168.778L102.404 168.738L127.569 146.25C127.65 146.169 127.772 146.088 127.895 146.047L143.368 142.184C143.409 142.184 143.449 142.184 143.49 142.143L156.113 141.126C156.561 141.086 156.968 141.411 157.009 141.858C157.05 142.306 156.724 142.712 156.276 142.753L143.734 143.77L128.505 147.551L103.503 169.917L60.9515 213.672C61.0736 218.389 63.3947 222.822 67.2223 225.546L103.544 251.531C103.911 251.775 103.992 252.304 103.748 252.67C103.585 252.873 103.341 252.995 103.096 252.995Z" fill="black"/>
<path d="M109.408 286.137C109.001 286.137 108.675 285.852 108.593 285.446L97.7213 214.404C97.5585 213.306 97.8435 212.208 98.5764 211.354C99.2687 210.501 100.327 210.013 101.427 209.972L243.213 205.905C244.353 205.865 245.452 206.353 246.185 207.207C246.959 208.061 247.284 209.199 247.122 210.297L242.032 245.757C242.032 245.757 242.032 245.757 242.032 245.797L237.064 280.2C237.023 280.607 236.697 280.891 236.29 280.891L109.408 286.137ZM243.294 207.532C243.253 207.532 243.253 207.532 243.213 207.532L101.427 211.598C100.775 211.598 100.205 211.924 99.798 212.412C99.3908 212.9 99.228 213.55 99.3094 214.16L110.1 284.47L235.517 279.265L240.403 245.554V245.513L240.444 245.147L245.493 210.053C245.574 209.403 245.371 208.752 244.963 208.264C244.556 207.817 243.945 207.532 243.294 207.532Z" fill="black"/>
<path d="M114.294 211.232C114.009 211.232 113.724 211.07 113.602 210.826C113.439 210.582 113.439 210.256 113.602 210.012L128.139 185.817C128.302 185.532 128.668 185.37 128.994 185.451C129.32 185.532 129.605 185.776 129.646 186.142L133.107 209.85C133.147 210.094 133.066 210.297 132.944 210.5C132.822 210.704 132.577 210.785 132.333 210.785L114.294 211.232ZM128.342 188.623L115.76 209.606L131.315 209.159L128.342 188.623Z" fill="black"/>
<path d="M210.474 208.467C210.27 208.467 210.067 208.386 209.904 208.223C209.741 208.061 209.66 207.857 209.66 207.613L209.985 184.8C209.985 184.475 210.189 184.15 210.515 184.068C210.84 183.946 211.166 184.028 211.41 184.312L225.255 200.05C225.418 200.212 225.459 200.416 225.459 200.619C225.459 200.822 225.337 201.026 225.174 201.188L217.315 208.101C217.152 208.223 216.989 208.305 216.785 208.305L210.474 208.467ZM211.573 186.996L211.288 206.841L216.46 206.678L223.463 200.497L211.573 186.996Z" fill="black"/>
<path d="M187.182 151.13C187.06 151.13 186.938 151.089 186.816 151.049C186.409 150.845 186.246 150.357 186.449 149.951L191.784 139.012C191.987 138.605 192.476 138.443 192.883 138.646C193.29 138.849 193.453 139.337 193.25 139.744L187.915 150.683C187.752 150.967 187.467 151.13 187.182 151.13Z" fill="black"/>
<path d="M309.993 282.518C308.364 287.072 305.351 291.22 300.912 294.351C300.709 294.514 300.464 294.677 300.261 294.799L283.688 304.273L206.931 313.22L207.949 310.088L170.121 296.1C181.767 291.83 196.751 286.381 207.42 282.477C208.845 281.948 210.189 281.46 211.41 281.013L236.209 279.997L240.036 253.32L277.946 240.958L297.94 251.613C309.708 257.875 313.943 271.376 309.993 282.518Z" fill="white"/>
<path d="M206.931 314.033C206.687 314.033 206.443 313.911 206.321 313.748C206.158 313.545 206.076 313.26 206.158 312.976L206.931 310.617L169.836 296.913C169.51 296.791 169.306 296.506 169.306 296.14C169.306 295.775 169.51 295.49 169.836 295.368C182.622 290.691 198.706 284.836 207.135 281.745L211.125 280.281C211.207 280.241 211.329 280.241 211.41 280.241L235.517 279.224L239.263 253.239C239.303 252.914 239.507 252.67 239.833 252.589L277.702 240.226C277.906 240.145 278.15 240.186 278.354 240.267L298.347 250.921C304.048 253.971 308.405 258.932 310.603 264.951C312.721 270.725 312.762 277.069 310.726 282.762C308.975 287.682 305.717 291.911 301.36 294.961C301.116 295.124 300.912 295.287 300.668 295.449C300.668 295.449 300.627 295.449 300.627 295.49L284.054 304.965C283.973 305.005 283.851 305.046 283.729 305.087L206.972 314.033C207.013 314.033 206.972 314.033 206.931 314.033ZM172.483 296.14L208.234 309.357C208.642 309.519 208.845 309.966 208.723 310.373L208.112 312.284L283.443 303.501L299.854 294.107C300.057 293.985 300.261 293.823 300.464 293.66C304.536 290.813 307.59 286.828 309.219 282.233C313.291 270.888 308.282 258.038 297.614 252.345L277.906 241.853L240.81 253.971L237.023 280.119C236.982 280.525 236.657 280.81 236.249 280.81L211.573 281.826L207.705 283.25C199.724 286.178 184.902 291.586 172.483 296.14Z" fill="black"/>
<path d="M223.423 322.857L219.473 335.341L217.478 335.016H217.437L200.742 332.535L205.425 317.977L217.763 321.312L223.423 322.857Z" fill="#48DD8F"/>
<path d="M219.473 336.154C219.432 336.154 219.392 336.154 219.351 336.154L217.356 335.87H217.315L200.579 333.389C200.335 333.349 200.131 333.227 200.009 333.023C199.887 332.82 199.846 332.576 199.928 332.332L204.61 317.774C204.732 317.367 205.18 317.123 205.588 317.245L223.586 322.125C223.789 322.166 223.993 322.328 224.074 322.532C224.196 322.735 224.196 322.938 224.156 323.182L220.206 335.667C220.165 335.911 219.839 336.154 219.473 336.154ZM217.518 334.203H217.559L218.903 334.406L222.364 323.386L205.954 318.913L201.801 331.844L217.518 334.203Z" fill="black"/>
<path d="M272.286 337.537C272.286 339.611 271.472 341.604 270.006 343.068L269.884 343.19C268.011 345.06 265.283 345.873 262.676 345.304L217.478 335.057L219.514 335.341L223.464 322.857L217.803 321.312L224.685 318.059C225.214 317.815 225.825 317.652 226.395 317.53L232.829 316.27C234.417 315.944 236.046 316.148 237.512 316.798L267.685 330.38C269.069 330.99 270.25 332.007 271.024 333.267C271.838 334.528 272.286 335.992 272.286 337.537Z" fill="#020202"/>
<path d="M264.387 346.239C263.776 346.239 263.124 346.158 262.514 346.036L217.315 335.789C216.908 335.707 216.623 335.26 216.704 334.853C216.785 334.406 217.193 334.121 217.641 334.203L218.984 334.406L222.446 323.386L217.6 322.085C217.274 322.003 217.03 321.719 216.989 321.353C216.948 321.027 217.152 320.702 217.437 320.539L224.319 317.286C224.929 317.002 225.581 316.798 226.232 316.676L232.666 315.416C234.417 315.09 236.209 315.294 237.838 316.026L268.011 329.608C269.517 330.299 270.82 331.397 271.716 332.779C272.612 334.162 273.101 335.789 273.101 337.456C273.101 339.774 272.205 341.929 270.576 343.556L270.454 343.678C268.825 345.386 266.626 346.239 264.387 346.239ZM220.491 334.894L262.88 344.491C265.201 345.02 267.644 344.288 269.314 342.62L269.436 342.498C270.739 341.197 271.472 339.408 271.472 337.578C271.472 336.236 271.065 334.935 270.373 333.796C269.64 332.657 268.581 331.763 267.359 331.234L237.145 317.571C235.842 316.961 234.376 316.798 232.951 317.083L226.517 318.343C225.988 318.465 225.459 318.628 224.97 318.831L220.125 321.149L223.626 322.125C223.83 322.166 224.034 322.329 224.115 322.532C224.237 322.735 224.237 322.939 224.196 323.183L220.491 334.894Z" fill="black"/>
<path d="M172.238 145.559C168.94 145.559 166.741 144.542 166.619 144.461C166.212 144.258 166.049 143.77 166.252 143.363C166.456 142.956 166.945 142.794 167.352 142.997C167.393 143.038 171.342 144.827 176.514 143.322C176.962 143.2 177.41 143.444 177.532 143.892C177.654 144.339 177.41 144.786 176.962 144.908C175.211 145.396 173.623 145.559 172.238 145.559Z" fill="black"/>
<path d="M207.949 310.129L206.931 313.26L205.425 317.977L200.742 332.535L198.991 337.985L157.457 330.014L144.264 327.493L129.32 324.606L92.1427 317.449L51.586 305.615C47.7583 304.477 45.478 300.573 46.4146 296.669L48.6542 287.398C49.0614 285.69 49.6722 284.022 50.4458 282.518C53.4998 276.418 59.1191 271.823 65.96 270.237L105.702 260.884L109.001 282.518L109.449 285.324L137.708 284.144L170.162 296.14L207.949 310.129Z" fill="white"/>
<path d="M198.991 338.798C198.95 338.798 198.869 338.798 198.828 338.798L91.9391 318.262C91.8984 318.262 91.8984 318.262 91.8577 318.262L51.3009 306.429C47.0254 305.168 44.5008 300.817 45.5595 296.506L47.799 287.235C48.247 285.446 48.8578 283.778 49.6722 282.152C52.889 275.727 58.7526 271.091 65.7157 269.464L105.458 260.111C105.662 260.071 105.906 260.111 106.11 260.233C106.313 260.355 106.435 260.559 106.476 260.803L110.1 284.51L137.627 283.372C137.749 283.372 137.83 283.372 137.952 283.412L208.234 309.357C208.642 309.519 208.845 309.966 208.723 310.373L199.765 338.229C199.643 338.554 199.317 338.798 198.991 338.798ZM92.3056 316.636L198.421 337.049L206.931 310.617L137.504 284.958L109.408 286.137C109.001 286.178 108.634 285.852 108.553 285.446L104.929 261.901L66.1229 271.05C59.6077 272.596 54.1513 276.906 51.1381 282.884C50.4051 284.388 49.7943 285.974 49.3871 287.601L47.1475 296.872C46.2924 300.329 48.3284 303.826 51.7489 304.843L92.3056 316.636Z" fill="black"/>
<path d="M147.44 332.617L143.735 333.593L141.821 337.131L110.426 351.77C109.164 352.38 107.698 352.38 106.395 351.851C105.254 351.363 104.359 350.469 103.829 349.33L102.974 347.419C102.404 346.117 102.404 344.654 102.974 343.352L103.259 342.742C103.626 341.888 104.277 341.156 105.051 340.628L123.375 328.55L129.279 324.565L144.223 327.452L147.44 332.617Z" fill="#020202"/>
<path d="M108.349 353.03C107.575 353.03 106.802 352.868 106.069 352.583C104.725 352.014 103.666 350.997 103.096 349.655L102.241 347.744C101.549 346.239 101.549 344.532 102.241 343.027L102.526 342.417C102.974 341.4 103.707 340.587 104.603 339.977L122.927 327.9L128.831 323.915C128.994 323.793 129.238 323.752 129.442 323.793L144.386 326.68C144.59 326.72 144.793 326.842 144.915 327.046L148.132 332.21C148.254 332.413 148.295 332.698 148.214 332.942C148.132 333.186 147.929 333.349 147.644 333.43L144.264 334.325L142.554 337.537C142.472 337.7 142.35 337.822 142.187 337.903L110.792 352.542C110.019 352.827 109.204 353.03 108.349 353.03ZM129.483 325.46L123.863 329.242L105.499 341.319C104.847 341.766 104.318 342.376 103.992 343.068L103.707 343.678C103.218 344.735 103.218 345.995 103.707 347.053L104.562 348.964C104.969 349.899 105.743 350.631 106.72 351.038C107.82 351.485 109.041 351.485 110.1 350.997L141.251 336.439L143.002 333.145C143.124 332.942 143.287 332.82 143.531 332.739L146.178 332.047L143.735 328.144L129.483 325.46Z" fill="black"/>
<path d="M157.457 329.974L147.44 332.617L144.223 327.452L157.457 329.974Z" fill="#48DD8F"/>
<path d="M147.44 333.43C147.155 333.43 146.911 333.308 146.748 333.064L143.531 327.9C143.368 327.615 143.368 327.29 143.531 327.005C143.694 326.72 144.02 326.598 144.345 326.68L157.538 329.201C157.905 329.282 158.19 329.608 158.19 329.974C158.19 330.34 157.946 330.706 157.579 330.787L147.603 333.389C147.603 333.389 147.521 333.43 147.44 333.43ZM145.933 328.591L147.847 331.641L153.792 330.096L145.933 328.591Z" fill="black"/>
<path d="M174.844 155.4C174.478 155.4 174.152 155.156 174.071 154.83C173.948 154.383 174.193 153.936 174.6 153.814L186.816 150.154C187.264 150.032 187.712 150.276 187.834 150.683C187.956 151.13 187.712 151.577 187.304 151.699L175.089 155.359C175.007 155.4 174.926 155.4 174.844 155.4Z" fill="black"/>
<path d="M176.188 200.538C175.74 200.538 175.414 200.212 175.374 199.765L173.338 155.237C173.338 154.79 173.663 154.424 174.111 154.383H174.152C174.6 154.383 174.926 154.708 174.966 155.156L177.002 199.684C177.002 200.131 176.677 200.497 176.188 200.538Z" fill="black"/>
<path d="M173.134 251.979L179.649 242.341C180.138 241.609 179.568 240.592 178.672 240.674L164.257 241.69C163.361 241.772 162.913 242.829 163.524 243.48L171.424 252.06C171.912 252.629 172.768 252.548 173.134 251.979Z" fill="black"/>
<path d="M174.559 184.272C174.437 184.272 174.356 184.272 174.234 184.231C174.111 184.19 162.791 179.433 167.067 165.647C168.37 161.377 166.375 157.067 165.031 154.871L163.361 152.106C161.814 149.544 161.081 146.616 161.244 143.648L161.733 133.115C161.773 132.668 162.14 132.343 162.588 132.343C163.036 132.384 163.402 132.75 163.361 133.197L162.873 143.729C162.751 146.372 163.402 148.975 164.787 151.252L166.456 154.017C168.981 158.206 169.754 162.516 168.655 166.095C164.827 178.416 174.478 182.523 174.885 182.686C175.292 182.848 175.496 183.336 175.333 183.743C175.17 184.068 174.885 184.272 174.559 184.272Z" fill="black"/>
<path d="M175.089 185.126C174.885 185.126 174.681 185.044 174.559 184.922C174.233 184.638 174.193 184.109 174.519 183.784C174.6 183.702 180.83 176.627 180.952 163.736C181.074 151.943 184.169 144.827 185.472 142.306L185.513 142.224C185.839 141.492 187.875 135.311 186.164 131.855C185.594 130.676 184.658 129.984 183.355 129.659C182.907 129.578 182.662 129.13 182.744 128.683C182.825 128.236 183.273 127.992 183.721 128.073C185.554 128.48 186.897 129.578 187.712 131.204C189.829 135.677 187.019 142.834 187.019 142.916L186.979 143.038C185.716 145.437 182.744 152.269 182.662 163.695C182.54 177.277 176.066 184.516 175.781 184.841C175.537 185.044 175.333 185.126 175.089 185.126Z" fill="black"/>
<path d="M176.188 208.183C176.188 208.183 176.147 208.183 176.188 208.183C175.699 208.183 175.374 207.776 175.374 207.329L175.496 203.262C175.496 202.815 175.903 202.49 176.351 202.49C176.799 202.49 177.165 202.896 177.125 203.343L177.002 207.41C176.962 207.857 176.636 208.183 176.188 208.183Z" fill="black"/>
<path d="M242.235 60.1223C242.235 60.4883 242.235 60.8542 242.195 61.1796L235.802 61.5862L232.87 59.9596L230.304 59.5936L226.436 59.0243V59.5936L226.599 65.734L226.925 66.5473C226.925 66.5473 230.875 67.6859 231.2 67.7672C231.404 67.8486 232.463 72.6877 233.073 75.6562C230.467 77.1201 227.495 77.9334 224.319 77.9334C224.196 77.9334 224.074 77.9334 223.952 77.9334L222.527 70.9391L224.237 68.0112C224.237 68.0112 223.341 65.49 223.545 64.4734C223.749 63.4568 214.098 64.2701 214.098 64.2701L212.469 60.0816L213.894 59.6343L214.912 59.309L215.197 56.9911L219.147 57.0724L219.636 55.3645L219.351 53.9412L212.754 49.8748L210.963 48.3295C212.103 47.0689 213.406 45.9709 214.831 45.0763L219.88 47.6382C219.88 47.6382 222.608 47.6382 223.138 47.6382C223.667 47.6382 226.925 48.0448 226.925 48.0448L230.671 47.5569L232.503 44.3443C234.132 45.1983 235.639 46.2963 236.942 47.5975L233.114 51.0134L231.892 56.1778L233.806 56.2998L235.313 58.0077L237.145 57.7231L238.978 58.5363H242.072C242.113 58.943 242.113 59.309 242.154 59.7156C242.235 59.797 242.235 59.9596 242.235 60.1223Z" fill="#C7E1F2"/>
<path d="M224.4 78.8281C224.278 78.8281 224.115 78.8281 223.993 78.8281C223.586 78.8281 223.26 78.5434 223.178 78.1367L221.753 71.1424C221.713 70.9391 221.753 70.7358 221.835 70.5324L223.382 67.9299C223.138 67.2386 222.771 65.8967 222.731 64.9207C221.468 64.7174 217.518 64.8394 214.22 65.124C213.854 65.1647 213.487 64.9207 213.365 64.5954L211.736 60.4069C211.655 60.2036 211.655 59.9596 211.777 59.7563C211.858 59.553 212.062 59.3903 212.266 59.309L214.22 58.6583L214.464 56.8691C214.505 56.4218 214.872 56.1371 215.32 56.1371L218.618 56.2185L218.862 55.3238L218.699 54.4699L212.388 50.6067C212.347 50.5661 212.306 50.5661 212.266 50.5254L210.474 48.9801C210.311 48.8175 210.189 48.6141 210.189 48.4108C210.189 48.1668 210.27 47.9635 210.393 47.8008C211.573 46.4589 212.958 45.3203 214.464 44.385C214.709 44.2224 215.035 44.2224 215.32 44.3443L220.165 46.8249H223.219C223.708 46.8249 226.232 47.1502 226.965 47.2315L230.182 46.7842L231.811 43.9377C232.055 43.5311 232.544 43.4091 232.951 43.6124C234.661 44.507 236.249 45.6456 237.593 46.9876C237.756 47.1502 237.838 47.3942 237.838 47.5975C237.838 47.8415 237.715 48.0448 237.553 48.2075L233.928 51.4607L232.992 55.4052L233.928 55.4458C234.173 55.4458 234.376 55.5678 234.539 55.7305L235.761 57.1131L237.145 56.8691C237.308 56.8284 237.471 56.8691 237.634 56.9504L239.303 57.6824H242.195C242.642 57.6824 243.009 58.0077 243.05 58.455C243.09 58.8617 243.131 59.2683 243.131 59.675C243.131 59.8376 243.131 60.0409 243.131 60.2036C243.131 60.6102 243.131 60.9762 243.09 61.3422C243.05 61.7489 242.724 62.1148 242.317 62.1148L235.924 62.5215C235.761 62.5215 235.598 62.4808 235.476 62.3995L232.666 60.8542L227.413 60.1223L227.576 65.6933L227.698 65.978C228.798 66.3033 231.322 66.9946 231.607 67.1166C232.178 67.3199 232.3 67.3606 234.051 75.6155C234.132 75.9815 233.969 76.3475 233.643 76.5102C230.752 78.0148 227.576 78.8281 224.4 78.8281ZM223.504 71.1018L224.726 77.1201C227.332 77.0795 229.897 76.4288 232.178 75.2496C231.322 71.3051 230.834 69.2312 230.63 68.4992C229.856 68.2552 227.983 67.7266 226.762 67.4013C226.517 67.3199 226.314 67.1573 226.192 66.8726L225.866 66.0593C225.825 65.978 225.825 65.8967 225.825 65.7747L225.622 59.065C225.622 58.821 225.703 58.577 225.907 58.4144C226.11 58.2517 226.355 58.1704 226.599 58.211L232.992 59.1057C233.114 59.1057 233.196 59.1463 233.277 59.187L236.005 60.6916L241.38 60.3663C241.38 60.2849 241.38 60.2036 241.38 60.0816C241.38 59.9189 241.38 59.7563 241.38 59.5936C241.38 59.4716 241.38 59.3496 241.38 59.2683H239.1C238.978 59.2683 238.856 59.2276 238.774 59.187L237.186 58.4957L235.598 58.7397C235.313 58.7803 235.028 58.699 234.824 58.455L233.521 56.9911L231.933 56.9098C231.689 56.9098 231.445 56.7878 231.282 56.5844C231.119 56.3811 231.078 56.1371 231.119 55.8931L232.34 50.7287C232.381 50.5661 232.463 50.4034 232.585 50.2814L235.72 47.4755C234.824 46.7029 233.888 45.9709 232.87 45.4016L231.445 47.8822C231.322 48.1262 231.078 48.2482 230.834 48.2888L227.088 48.7768C227.006 48.7768 226.925 48.7768 226.884 48.7768C225.296 48.5735 223.504 48.3702 223.219 48.3702H219.962C219.839 48.3702 219.677 48.3295 219.554 48.2888L214.953 45.9303C213.976 46.5809 213.08 47.3129 212.266 48.1668L213.324 49.1021L219.88 53.1279C220.084 53.2499 220.206 53.4533 220.247 53.6566L220.532 55.0798C220.572 55.2018 220.572 55.3645 220.532 55.4865L220.043 57.2757C219.921 57.6417 219.595 57.8857 219.229 57.8857L216.012 57.8044L215.808 59.3903C215.767 59.7156 215.564 60.0003 215.238 60.0816L213.65 60.6102L214.709 63.3755C223.26 62.6841 223.952 63.4568 224.196 63.7821C224.4 64.0261 224.481 64.3514 224.441 64.6361C224.359 65.124 224.726 66.6286 225.133 67.7266C225.214 67.9706 225.174 68.2146 225.052 68.4585L223.504 71.1018Z" fill="black"/>
<path d="M232.544 44.3037L230.712 47.5162L226.965 48.0042C226.965 48.0042 223.708 47.5975 223.219 47.5975C222.731 47.5975 219.962 47.5975 219.962 47.5975L214.912 45.0356C217.641 43.3277 220.898 42.3111 224.359 42.3111C227.332 42.3111 230.101 43.0024 232.544 44.3037Z" fill="#48DD8F"/>
<path d="M226.965 48.8581C226.925 48.8581 226.884 48.8581 226.843 48.8581C225.255 48.6548 223.463 48.4515 223.178 48.4515H219.921C219.799 48.4515 219.636 48.4108 219.514 48.3702L214.464 45.8083C214.179 45.6863 214.017 45.4016 214.017 45.0763C214.017 44.7916 214.139 44.4663 214.424 44.3037C217.396 42.4331 220.817 41.4571 224.319 41.4571C227.291 41.4571 230.264 42.1891 232.87 43.531C233.073 43.653 233.236 43.8157 233.277 44.0597C233.358 44.263 233.318 44.507 233.195 44.7103L231.363 47.9228C231.241 48.1668 230.997 48.2888 230.752 48.3295L227.006 48.8581C227.047 48.8581 227.006 48.8581 226.965 48.8581ZM220.165 46.7436H223.219C223.708 46.7436 226.232 47.0689 226.965 47.1502L230.223 46.7029L231.404 44.629C229.205 43.653 226.843 43.1244 224.4 43.1244C221.713 43.1244 219.106 43.7344 216.745 44.9543L220.165 46.7436Z" fill="black"/>
<path d="M242.154 58.455H239.059L237.227 57.6417L235.394 57.9264L233.888 56.2184L231.974 56.1371L233.195 50.9727L237.023 47.5569C239.874 50.3627 241.747 54.2259 242.154 58.455Z" fill="#48DD8F"/>
<path d="M242.154 59.309H239.059C238.937 59.309 238.815 59.2683 238.733 59.2276L237.145 58.5363L235.557 58.7803C235.272 58.821 234.987 58.7397 234.784 58.4957L233.481 57.0317L231.892 56.9504C231.648 56.9504 231.404 56.8284 231.241 56.6251C231.078 56.4218 231.037 56.1778 231.078 55.9338L232.3 50.7694C232.34 50.6067 232.422 50.4441 232.544 50.3221L236.372 46.9062C236.697 46.6216 237.227 46.6216 237.552 46.9469C240.647 50.0374 242.561 54.1039 242.968 58.4143C243.009 58.6583 242.927 58.9023 242.765 59.065C242.642 59.2276 242.398 59.309 242.154 59.309ZM239.263 57.6011H241.217C240.729 54.2665 239.222 51.176 236.982 48.6955L233.969 51.3793L233.033 55.3238L233.969 55.3645C234.213 55.3645 234.417 55.4865 234.58 55.6491L235.802 57.0317L237.186 56.7878C237.349 56.7471 237.512 56.7878 237.675 56.8691L239.263 57.6011Z" fill="black"/>
<path d="M242.195 61.2202C241.828 67.4419 238.285 72.8097 233.114 75.6969C232.503 72.769 231.445 67.8892 231.241 67.8079C230.956 67.6859 226.965 66.588 226.965 66.588L226.64 65.7747L226.477 59.6343V59.065L230.345 59.6343L232.91 60.0003L235.842 61.6269L242.195 61.2202Z" fill="#48DD8F"/>
<path d="M233.155 76.5508C233.033 76.5508 232.91 76.5102 232.788 76.4695C232.544 76.3475 232.381 76.1442 232.3 75.8595C231.404 71.5084 230.834 69.2718 230.63 68.4992C229.856 68.2552 227.983 67.7266 226.762 67.4012C226.517 67.3199 226.314 67.1573 226.192 66.8726L225.866 66.0593C225.825 65.978 225.825 65.8966 225.825 65.7747L225.622 59.065C225.622 58.821 225.703 58.577 225.907 58.4143C226.11 58.2517 226.355 58.1704 226.599 58.211L232.992 59.1056C233.114 59.1056 233.195 59.1463 233.277 59.187L236.005 60.6916L242.154 60.2849C242.398 60.2849 242.642 60.3662 242.805 60.5289C242.968 60.6916 243.05 60.9356 243.05 61.1795C242.683 67.5232 239.141 73.2163 233.562 76.3475C233.44 76.5101 233.277 76.5508 233.155 76.5508ZM227.617 65.8967C228.716 66.222 231.241 66.9133 231.526 67.0353C232.096 67.1979 232.218 67.2793 233.725 74.3549C237.96 71.5897 240.688 67.1166 241.299 62.1148L235.924 62.4401C235.761 62.4401 235.598 62.3995 235.476 62.3182L232.666 60.7729L227.413 60.0409L227.576 65.612L227.617 65.8967Z" fill="black"/>
<path d="M222.608 70.9798L224.034 77.9741C221.875 77.9334 219.799 77.5268 217.926 76.7541L216.908 72.9723L213.772 70.2478L213.976 64.88L207.013 64.1481C206.728 62.8468 206.565 61.5049 206.565 60.1223C206.565 59.9596 206.565 59.797 206.565 59.5936C206.687 55.2425 208.357 51.298 211.085 48.2482L212.876 49.7934L219.473 53.8599L219.758 55.2832L219.269 56.9911L215.32 56.9098L215.035 59.2276L214.017 59.553L212.591 60.0003L214.22 64.1887C214.22 64.1887 223.871 63.3755 223.667 64.3921C223.464 65.4087 224.359 67.9299 224.359 67.9299L222.608 70.9798Z" fill="#48DD8F"/>
<path d="M224.034 78.828C224.034 78.828 223.993 78.828 224.034 78.828C221.794 78.7874 219.677 78.3807 217.6 77.5674C217.356 77.4861 217.152 77.2421 217.071 76.9981L216.134 73.4603L213.161 70.8984C212.958 70.7358 212.876 70.4918 212.876 70.2478L213.039 65.6527L206.85 65.002C206.483 64.9614 206.198 64.7174 206.117 64.3514C205.791 62.9688 205.628 61.5455 205.628 60.1629C205.628 60.0003 205.628 59.7969 205.628 59.6343C205.75 55.2425 207.42 51.0134 210.352 47.7602C210.678 47.4349 211.207 47.3942 211.533 47.6788L213.284 49.1835L219.839 53.2093C220.043 53.3313 220.165 53.5346 220.206 53.7379L220.491 55.1612C220.532 55.2832 220.532 55.4458 220.491 55.5678L220.043 57.2757C219.921 57.6417 219.595 57.8857 219.229 57.8857L216.012 57.8044L215.808 59.3903C215.767 59.7156 215.564 60.0003 215.238 60.0816L213.65 60.6102L214.709 63.3754C223.26 62.6841 223.952 63.4568 224.196 63.7821C224.4 64.0261 224.481 64.3514 224.441 64.6361C224.359 65.124 224.726 66.6286 225.133 67.7266C225.214 67.9706 225.174 68.2146 225.052 68.4585L223.504 71.1424L224.848 77.8521C224.889 78.0961 224.848 78.3807 224.685 78.5434C224.522 78.7061 224.278 78.828 224.034 78.828ZM218.618 76.1442C220.043 76.6322 221.468 76.9575 222.975 77.0795L221.753 71.1424C221.713 70.9391 221.753 70.7358 221.835 70.5324L223.382 67.9299C223.138 67.2386 222.771 65.8967 222.731 64.9207C221.509 64.7174 217.966 64.8394 214.79 65.0834L214.627 69.9225L217.478 72.403C217.6 72.525 217.681 72.647 217.722 72.8097L218.618 76.1442ZM207.664 63.3754L213.121 63.9447L211.736 60.4069C211.655 60.2036 211.655 59.9596 211.777 59.7563C211.858 59.553 212.062 59.3903 212.266 59.309L214.22 58.6583L214.464 56.8691C214.505 56.4218 214.872 56.0965 215.32 56.1371L218.618 56.2184L218.862 55.3238L218.699 54.4699L212.388 50.6067C212.347 50.5661 212.306 50.566 212.266 50.5254L211.125 49.5494C208.804 52.4366 207.461 56.0151 207.379 59.7156C207.379 59.8783 207.379 60.0409 207.379 60.2036C207.379 61.2202 207.461 62.3182 207.664 63.3754Z" fill="black"/>
<path d="M217.885 76.7541C212.428 74.6396 208.275 69.9225 206.972 64.1481L213.935 64.88L213.732 70.2478L216.867 72.9723L217.885 76.7541Z" fill="#C7E1F2"/>
<path d="M217.885 77.6081C217.763 77.6081 217.681 77.6081 217.559 77.5674C211.777 75.3309 207.501 70.3698 206.117 64.3514C206.035 64.0668 206.117 63.8228 206.321 63.6194C206.483 63.4161 206.768 63.2941 207.053 63.3348L214.017 64.0668C214.464 64.1074 214.79 64.5141 214.79 64.9207L214.587 69.8818L217.437 72.3624C217.559 72.4844 217.641 72.6063 217.681 72.769L218.699 76.5508C218.781 76.8761 218.699 77.2015 218.455 77.4048C218.292 77.5268 218.129 77.6081 217.885 77.6081ZM208.112 65.124C209.456 69.5158 212.551 73.1757 216.623 75.2496L216.134 73.4603L213.161 70.8984C212.958 70.7358 212.876 70.4918 212.876 70.2478L213.039 65.6527L208.112 65.124Z" fill="black"/>
<path d="M212.428 110.913C212.021 110.913 211.696 110.587 211.696 110.181V108.473C211.696 108.066 212.021 107.741 212.428 107.741C212.836 107.741 213.161 108.066 213.161 108.473V110.181C213.161 110.587 212.836 110.913 212.428 110.913Z" fill="black"/>
<path d="M236.657 110.913C236.249 110.913 235.924 110.587 235.924 110.181V104.772C235.924 102.332 236.534 99.933 237.675 97.7778L250.013 74.8022C252.782 69.6378 254.248 63.8228 254.248 57.967C254.248 41.8231 241.095 28.6884 224.929 28.6884C208.764 28.6884 195.611 41.8231 195.611 57.967C195.611 64.514 197.444 70.9391 200.946 76.5101L212.876 95.5413C213.08 95.9072 212.999 96.3545 212.632 96.5579C212.266 96.7612 211.818 96.6799 211.614 96.3139L199.683 77.2421C196.059 71.4271 194.105 64.758 194.105 57.9264C194.105 40.9692 207.909 27.1838 224.889 27.1838C241.869 27.1838 255.673 40.9692 255.673 57.9264C255.673 64.0261 254.166 70.0851 251.275 75.4935L238.937 98.4691C237.919 100.421 237.349 102.576 237.349 104.772V110.181C237.39 110.587 237.064 110.913 236.657 110.913Z" fill="black"/>
<path d="M227.698 115.996H212.428C212.021 115.996 211.696 115.67 211.696 115.264C211.696 114.857 212.021 114.532 212.428 114.532H227.698C228.106 114.532 228.431 114.857 228.431 115.264C228.431 115.67 228.106 115.996 227.698 115.996Z" fill="black"/>
<path d="M227.698 125.145H212.428C212.021 125.145 211.696 124.82 211.696 124.413C211.696 124.007 212.021 123.681 212.428 123.681H227.698C228.106 123.681 228.431 124.007 228.431 124.413C228.431 124.82 228.106 125.145 227.698 125.145Z" fill="black"/>
<path d="M220.572 120.835L212.428 120.713C212.021 120.713 211.696 120.387 211.696 119.981C211.696 119.574 212.021 119.249 212.428 119.249L220.572 119.371C220.98 119.371 221.305 119.696 221.305 120.103C221.305 120.509 220.98 120.835 220.572 120.835Z" fill="black"/>
<path d="M113.358 278.736C112.91 278.736 112.543 278.411 112.543 277.963C112.543 277.516 112.869 277.15 113.317 277.109L234.661 272.758C235.109 272.758 235.476 273.084 235.517 273.531C235.517 273.978 235.191 274.344 234.743 274.385L113.358 278.736C113.398 278.736 113.358 278.736 113.358 278.736Z" fill="black"/>
<path d="M161.244 129.456C161.162 129.456 161.081 129.456 161.04 129.415C160.755 129.334 160.592 129.09 160.511 128.846L160.47 128.764C160.43 128.642 160.43 128.52 160.389 128.398C160.389 128.358 160.348 128.236 160.348 128.154L160.307 128.073C160.307 128.032 160.267 127.951 160.267 127.91C160.226 127.748 160.185 127.585 160.145 127.382C160.063 126.975 159.982 126.568 159.941 126.202C159.9 125.918 159.859 125.593 159.819 125.308C159.778 124.983 159.778 124.657 159.737 124.332C159.737 124.251 159.737 124.129 159.737 124.007C159.656 122.339 159.859 120.957 160.267 119.899C161.244 117.5 163.809 114.45 167.474 112.986C170.894 111.604 174.6 111.848 178.468 113.596C178.55 113.637 178.59 113.678 178.672 113.718C178.713 113.759 179.853 114.816 181.034 116.524L181.115 116.646C181.156 116.728 181.197 116.809 181.278 116.85C181.359 116.972 181.441 117.094 181.482 117.216C181.563 117.338 181.604 117.419 181.685 117.541C181.767 117.663 181.848 117.826 181.93 117.988C181.97 118.07 182.052 118.192 182.133 118.314C182.215 118.476 182.296 118.639 182.377 118.801C182.418 118.923 182.459 119.005 182.54 119.127C182.54 119.167 182.581 119.208 182.581 119.249C182.703 119.533 182.785 119.777 182.907 120.103C182.947 120.265 183.029 120.428 183.07 120.591C183.11 120.713 183.151 120.875 183.192 121.038C183.192 121.079 183.233 121.119 183.233 121.16C183.273 121.282 183.314 121.445 183.314 121.567C183.355 121.689 183.355 121.851 183.395 121.973C183.395 122.014 183.436 122.095 183.436 122.136C183.436 122.258 183.477 122.38 183.477 122.502C183.477 122.543 183.477 122.543 183.477 122.583C183.477 122.746 183.518 122.868 183.518 123.031C183.518 123.071 183.518 123.071 183.518 123.112C183.518 123.275 183.558 123.437 183.558 123.6C183.558 123.803 183.477 124.007 183.314 124.169C183.151 124.332 182.947 124.373 182.744 124.373C176.84 124.047 170.854 122.949 168.94 122.624C168.288 123.844 166.782 124.942 165.194 126.121C163.85 127.097 162.466 128.114 161.773 129.09C161.692 129.374 161.448 129.456 161.244 129.456ZM172.116 113.637C170.732 113.637 169.347 113.881 168.044 114.41C164.339 115.874 162.303 118.923 161.692 120.509C161.325 121.404 161.203 122.543 161.244 124.007C161.244 124.129 161.244 124.21 161.244 124.291C161.244 124.617 161.285 124.901 161.325 125.186C161.366 125.471 161.407 125.755 161.448 126.04C161.488 126.406 161.57 126.731 161.61 127.138V127.178C162.384 126.446 163.361 125.715 164.339 125.023C165.845 123.925 167.596 122.665 167.8 121.729C167.881 121.323 168.288 121.079 168.655 121.16C168.736 121.16 175.292 122.502 182.011 122.949V122.909C182.011 122.868 182.011 122.868 182.011 122.827C182.011 122.705 181.97 122.583 181.97 122.461C181.97 122.461 181.97 122.421 181.97 122.38C181.929 122.217 181.929 122.095 181.889 121.933C181.848 121.811 181.848 121.689 181.807 121.567C181.807 121.526 181.807 121.485 181.807 121.485C181.767 121.363 181.726 121.241 181.685 121.079C181.644 120.916 181.604 120.794 181.563 120.672C181.482 120.428 181.359 120.143 181.278 119.899C181.278 119.899 181.278 119.859 181.237 119.859C181.197 119.737 181.156 119.655 181.115 119.574V119.533C181.034 119.411 180.993 119.249 180.912 119.127C180.871 119.005 180.789 118.923 180.749 118.801C180.667 118.639 180.586 118.517 180.545 118.395C180.464 118.273 180.423 118.192 180.341 118.07C180.26 117.948 180.219 117.866 180.138 117.744C180.097 117.663 180.056 117.622 180.016 117.541L179.934 117.419C179.038 116.077 178.143 115.223 177.898 114.938C175.862 114.044 173.948 113.637 172.116 113.637Z" fill="black"/>
<path d="M232.3 129.496H216.785C213.976 129.496 211.696 127.219 211.696 124.413V110.181C211.696 109.774 212.021 109.449 212.428 109.449H236.657C237.064 109.449 237.39 109.774 237.39 110.181V124.413C237.39 127.219 235.109 129.496 232.3 129.496ZM213.161 110.913V124.413C213.161 126.406 214.79 128.032 216.785 128.032H232.34C234.336 128.032 235.964 126.406 235.964 124.413V110.913H213.161Z" fill="black"/>
</svg>
